<svg width="253" height="100" viewBox="0 0 253 100" fill="none" xmlns="http://www.w3.org/2000/svg">
<g filter="url(#filter0_d)">
<path d="M76.987 60.596C93.172 60.596 102.468 52.373 102.468 40.338C102.468 22.493 73.584 27.473 73.667 17.928C73.667 13.778 78.232 10.79 86.034 10.79C91.761 10.79 97.405 12.284 101.804 15.272L106.867 4.98C101.804 1.743 94.583 0 86.781 0C70.679 0 60.221 7.719 60.221 19.671C60.221 38.18 89.022 33.2 89.022 42.496C89.022 46.729 84.374 49.302 76.987 49.302C70.098 49.302 63.312 47.497 58 43.596C58 43.596 52.5697 46.2853 51.5002 49.596C51.1453 50.6946 51.0003 52.596 52.5002 53.596C54.0001 54.596 58.8282 60.1 76.987 60.596Z" fill="white"/>
<path d="M122.438 36.1639C119.666 36.1639 117.062 37.0459 115.004 38.9359L115.508 36.4999H109.292L104.798 59.0959H111.35L113.618 47.6299C114.416 43.6819 116.726 41.8339 120.044 41.8339C122.648 41.8339 123.908 43.1359 123.908 45.4459C123.908 45.9079 123.866 46.4539 123.74 46.9999L121.304 59.0959H127.856L130.376 46.5799C130.586 45.6139 130.67 44.6899 130.67 43.8499C130.67 38.8519 127.394 36.1639 122.438 36.1639ZM142.699 33.3499C145.303 33.3499 147.067 31.7119 147.067 29.3179C147.067 27.4699 145.513 26.0419 143.203 26.0419C140.599 26.0419 138.877 27.7639 138.877 29.9479C138.877 31.8379 140.389 33.3499 142.699 33.3499ZM133.837 59.0959H140.347L144.841 36.4999H138.331L133.837 59.0959ZM146.429 59.0959H152.981L159.197 27.9319H152.645L146.429 59.0959ZM167.294 59.4319C173.804 59.4319 178.676 56.7019 178.676 51.5359C178.676 44.0179 166.748 46.6639 166.748 43.3459C166.748 42.1279 168.092 41.1199 171.116 41.1199C173.216 41.1199 175.694 41.5399 177.794 42.8419L180.146 38.0539C178.088 36.8779 174.938 36.1639 171.788 36.1639C165.194 36.1639 160.448 39.0199 160.448 44.1019C160.448 51.7459 172.418 49.0999 172.418 52.2919C172.418 53.6359 171.074 54.4759 168.008 54.4759C165.152 54.4759 162.086 53.6359 160.154 52.3339L157.634 57.0799C159.524 58.4239 163.304 59.4319 167.294 59.4319Z" fill="white"/>
<path d="M39.606 81.0979C36.572 82.4919 33.456 83.1479 30.094 83.1479C19.188 83.1479 13.448 77.326 13.448 68.716C13.448 56.0879 21.87 47.4799 35.318 47.4799C41.714 47.4799 43.818 46.4119 54.318 54.9799L60.318 45.4799C52.318 38.4799 47.068 35.0959 36.08 35.0959C14.35 35.0959 0 49.938 0 69.5359C0 84.378 10.988 94.464 28.372 94.464C36.654 94.464 44.526 91.922 50.348 87.4939L55.104 63.8779H42.968L39.606 81.0979Z" fill="white"/>
<path d="M83.326 76.1179C83.326 70.0699 79.168 66.1639 72.574 66.1639C64.72 66.1639 59.26 71.7499 59.26 79.3099C59.26 85.4419 63.754 89.4319 70.81 89.4319C74.254 89.4319 77.656 88.5079 80.26 86.4079L77.53 82.0819C75.976 83.4259 73.792 84.1819 71.482 84.1819C67.744 84.1819 65.854 82.6279 65.644 79.5619H82.948C83.158 78.5119 83.326 77.3359 83.326 76.1179ZM72.28 71.0779C75.304 71.0779 77.32 72.7579 77.32 75.7399H66.106C66.988 72.9259 69.13 71.0779 72.28 71.0779ZM102.811 66.1639C100.039 66.1639 97.435 67.0459 95.377 68.9359L95.881 66.4999H89.665L85.171 89.0959H91.723L93.991 77.6299C94.789 73.6819 97.099 71.8339 100.417 71.8339C103.021 71.8339 104.281 73.1359 104.281 75.4459C104.281 75.9079 104.239 76.4539 104.113 76.9999L101.677 89.0959H108.229L110.749 76.5799C110.959 75.6139 111.043 74.6899 111.043 73.8499C111.043 68.8519 107.767 66.1639 102.811 66.1639ZM138.984 76.1179C138.984 70.0699 134.826 66.1639 128.232 66.1639C120.378 66.1639 114.918 71.7499 114.918 79.3099C114.918 85.4419 119.412 89.4319 126.468 89.4319C129.912 89.4319 133.314 88.5079 135.918 86.4079L133.188 82.0819C131.634 83.4259 129.45 84.1819 127.14 84.1819C123.402 84.1819 121.512 82.6279 121.302 79.5619H138.606C138.816 78.5119 138.984 77.3359 138.984 76.1179ZM127.938 71.0779C130.962 71.0779 132.978 72.7579 132.978 75.7399H121.764C122.646 72.9259 124.788 71.0779 127.938 71.0779ZM150.993 69.1879L151.539 66.4999H145.323L140.829 89.0959H147.381L149.565 78.1759C150.405 73.9339 152.883 72.1279 156.747 72.1279C157.293 72.1279 157.671 72.1699 158.259 72.2119L159.435 66.1639C155.781 66.1639 153.009 67.0039 150.993 69.1879ZM179.422 66.4999L178.834 69.5659C177.364 67.2139 174.76 66.1639 171.484 66.1639C164.512 66.1639 159.01 71.7079 159.01 79.3099C159.01 85.7359 163.504 89.4319 168.754 89.4319C171.526 89.4319 173.878 88.5079 175.684 86.8699L175.264 89.0959H181.48L185.974 66.4999H179.422ZM170.77 84.0139C167.494 84.0139 165.604 82.0819 165.604 79.0159C165.604 74.6059 168.376 71.5819 172.24 71.5819C175.516 71.5819 177.406 73.5139 177.406 76.5799C177.406 80.9899 174.634 84.0139 170.77 84.0139ZM198.256 72.0439H203.884L204.892 67.0039H199.264L200.356 61.5019H193.804L192.712 67.0039H189.226L188.218 72.0439H191.704L189.898 81.1579C189.772 81.8299 189.688 82.5019 189.688 83.1319C189.688 87.0799 192.544 89.4319 196.744 89.4319C198.718 89.4319 200.734 89.0959 202.372 88.0879L201.406 83.4259C200.566 83.9299 199.642 84.2239 198.76 84.2239C197.122 84.2239 196.366 83.4259 196.366 82.0399C196.366 81.7459 196.366 81.4519 196.45 81.1159L198.256 72.0439ZM216.903 89.4319C224.883 89.4319 230.553 83.8039 230.553 76.2859C230.553 70.1539 226.101 66.1639 219.171 66.1639C211.233 66.1639 205.521 71.7919 205.521 79.3099C205.521 85.3999 210.015 89.4319 216.903 89.4319ZM217.323 84.0139C214.047 84.0139 212.157 82.0819 212.157 79.0159C212.157 74.6059 214.929 71.5819 218.793 71.5819C222.069 71.5819 223.917 73.5139 223.917 76.5799C223.917 80.9899 221.145 84.0139 217.323 84.0139ZM242.745 69.1879L243.291 66.4999H237.075L232.581 89.0959H239.133L241.317 78.1759C242.157 73.9339 244.635 72.1279 248.499 72.1279C249.045 72.1279 249.423 72.1699 250.011 72.2119L251.187 66.1639C247.533 66.1639 244.761 67.0039 242.745 69.1879Z" fill="white"/>
</g>
<defs>
<filter id="filter0_d" x="0" y="0" width="252.187" height="95.464" filterUnits="userSpaceOnUse" color-interpolation-filters="sRGB">
<feFlood flood-opacity="0" result="BackgroundImageFix"/>
<feColorMatrix in="SourceAlpha" type="matrix" values="0 0 0 0 0 0 0 0 0 0 0 0 0 0 0 0 0 0 127 0"/>
<feOffset dx="1" dy="1"/>
<feColorMatrix type="matrix" values="0 0 0 0 0 0 0 0 0 0 0 0 0 0 0 0 0 0 0.5 0"/>
<feBlend mode="normal" in2="BackgroundImageFix" result="effect1_dropShadow"/>
<feBlend mode="normal" in="SourceGraphic" in2="effect1_dropShadow" result="shape"/>
</filter>
</defs>
</svg>
