<svg width="512" height="512" viewBox="0 0 512 512" fill="none" xmlns="http://www.w3.org/2000/svg">
<rect width="512" height="512" rx="76" fill="url(#paint0_radial)"/>
<path d="M182.968 268.07C209.451 268.07 224.661 254.49 224.661 234.615C224.661 205.145 177.4 213.37 177.536 197.607C177.536 190.753 185.005 185.819 197.771 185.819C207.142 185.819 216.377 188.286 223.575 193.221L231.859 176.224C223.575 170.878 211.759 168 198.994 168C172.647 168 155.535 180.747 155.535 200.485C155.535 231.051 202.66 222.827 202.66 238.179C202.66 245.169 195.055 249.418 182.968 249.418C171.696 249.418 160.593 246.438 151.901 239.995C151.901 239.995 143.016 244.437 141.266 249.904C140.685 251.718 140.448 254.858 142.902 256.51C145.356 258.161 153.256 267.251 182.968 268.07Z" fill="white"/>
<path d="M257.337 227.722C252.801 227.722 248.54 229.179 245.173 232.3L245.998 228.277H235.827L228.474 265.592H239.194L242.905 246.657C244.211 240.137 247.991 237.086 253.42 237.086C257.68 237.086 259.742 239.236 259.742 243.051C259.742 243.814 259.673 244.715 259.467 245.617L255.481 265.592H266.202L270.325 244.923C270.669 243.328 270.806 241.802 270.806 240.415C270.806 232.161 265.446 227.722 257.337 227.722Z" fill="white"/>
<path d="M290.488 223.075C294.749 223.075 297.635 220.37 297.635 216.416C297.635 213.365 295.093 211.006 291.313 211.006C287.052 211.006 284.235 213.85 284.235 217.457C284.235 220.578 286.709 223.075 290.488 223.075ZM275.988 265.592H286.64L293.993 228.277H283.341L275.988 265.592Z" fill="white"/>
<path d="M296.591 265.592H307.312L317.483 214.128H306.762L296.591 265.592Z" fill="white"/>
<path d="M330.731 266.147C341.383 266.147 349.354 261.639 349.354 253.108C349.354 240.692 329.837 245.062 329.837 239.583C329.837 237.571 332.037 235.907 336.985 235.907C340.421 235.907 344.475 236.6 347.911 238.75L351.76 230.843C348.392 228.901 343.238 227.722 338.084 227.722C327.295 227.722 319.529 232.439 319.529 240.831C319.529 253.455 339.115 249.085 339.115 254.356C339.115 256.576 336.916 257.963 331.899 257.963C327.226 257.963 322.209 256.576 319.048 254.426L314.925 262.263C318.017 264.483 324.202 266.147 330.731 266.147Z" fill="white"/>
<path d="M121.805 301.927C116.84 304.229 111.742 305.312 106.241 305.312C88.396 305.312 79.004 295.698 79.004 281.479C79.004 260.625 92.7843 246.41 114.788 246.41C125.254 246.41 128.696 244.646 145.877 258.795L155.694 243.107C142.604 231.547 134.014 225.958 116.035 225.958C80.4799 225.958 57 250.469 57 282.833C57 307.344 74.9789 324 103.423 324C116.974 324 129.855 319.802 139.381 312.49L147.163 273.49H127.306L121.805 301.927Z" fill="white"/>
<path d="M193.34 293.703C193.34 283.715 186.537 277.265 175.748 277.265C162.897 277.265 153.963 286.49 153.963 298.974C153.963 309.101 161.316 315.69 172.861 315.69C178.497 315.69 184.063 314.164 188.324 310.696L183.857 303.552C181.314 305.772 177.741 307.02 173.961 307.02C167.845 307.02 164.752 304.454 164.409 299.39H192.722C193.066 297.656 193.34 295.714 193.34 293.703ZM175.267 285.38C180.215 285.38 183.513 288.154 183.513 293.079H165.165C166.608 288.432 170.113 285.38 175.267 285.38Z" fill="white"/>
<path d="M225.223 277.265C220.687 277.265 216.426 278.721 213.059 281.842L213.883 277.82H203.713L196.359 315.135H207.08L210.791 296.2C212.097 289.68 215.876 286.628 221.305 286.628C225.566 286.628 227.628 288.778 227.628 292.593C227.628 293.356 227.559 294.258 227.353 295.16L223.367 315.135H234.088L238.211 294.466C238.554 292.871 238.692 291.345 238.692 289.958C238.692 281.704 233.332 277.265 225.223 277.265Z" fill="white"/>
<path d="M284.41 293.703C284.41 283.715 277.607 277.265 266.817 277.265C253.966 277.265 245.033 286.49 245.033 298.974C245.033 309.101 252.386 315.69 263.931 315.69C269.566 315.69 275.133 314.164 279.393 310.696L274.926 303.552C272.384 305.772 268.81 307.02 265.031 307.02C258.914 307.02 255.822 304.454 255.478 299.39H283.792C284.135 297.656 284.41 295.714 284.41 293.703ZM266.336 285.38C271.284 285.38 274.583 288.154 274.583 293.079H256.234C257.677 288.432 261.182 285.38 266.336 285.38Z" fill="white"/>
<path d="M304.06 282.259L304.953 277.82H294.782L287.429 315.135H298.15L301.723 297.102C303.098 290.096 307.152 287.114 313.475 287.114C314.368 287.114 314.986 287.183 315.948 287.253L317.873 277.265C311.894 277.265 307.358 278.652 304.06 282.259Z" fill="white"/>
<path d="M350.576 277.82L349.613 282.883C347.208 278.999 342.948 277.265 337.587 277.265C326.179 277.265 317.177 286.42 317.177 298.974C317.177 309.586 324.53 315.69 333.12 315.69C337.656 315.69 341.504 314.164 344.459 311.459L343.772 315.135H353.943L361.296 277.82H350.576ZM336.419 306.743C331.059 306.743 327.966 303.552 327.966 298.489C327.966 291.206 332.502 286.212 338.824 286.212C344.185 286.212 347.277 289.403 347.277 294.466C347.277 301.749 342.741 306.743 336.419 306.743Z" fill="white"/>
<path d="M381.392 286.975H390.601L392.25 278.652H383.042L384.829 269.566H374.108L372.321 278.652H366.617L364.968 286.975H370.672L367.717 302.026C367.511 303.136 367.373 304.246 367.373 305.286C367.373 311.806 372.046 315.69 378.918 315.69C382.148 315.69 385.447 315.135 388.127 313.471L386.547 305.772C385.172 306.604 383.66 307.089 382.217 307.089C379.537 307.089 378.3 305.772 378.3 303.483C378.3 302.997 378.3 302.512 378.437 301.957L381.392 286.975Z" fill="white"/>
<path d="M411.903 315.69C424.96 315.69 434.237 306.396 434.237 293.98C434.237 283.854 426.953 277.265 415.614 277.265C402.625 277.265 393.279 286.559 393.279 298.974C393.279 309.031 400.632 315.69 411.903 315.69ZM412.59 306.743C407.23 306.743 404.137 303.552 404.137 298.489C404.137 291.206 408.673 286.212 414.995 286.212C420.355 286.212 423.379 289.403 423.379 294.466C423.379 301.749 418.844 306.743 412.59 306.743Z" fill="white"/>
<path d="M454.187 282.259L455.08 277.82H444.91L437.556 315.135H448.277L451.85 297.102C453.225 290.096 457.279 287.114 463.602 287.114C464.495 287.114 465.114 287.183 466.076 287.253L468 277.265C462.021 277.265 457.486 278.652 454.187 282.259Z" fill="white"/>
<defs>
<radialGradient id="paint0_radial" cx="0" cy="0" r="1" gradientUnits="userSpaceOnUse" gradientTransform="translate(256 256) rotate(90) scale(256)">
<stop stop-color="#2D2743"/>
<stop offset="1" stop-color="#101920"/>
</radialGradient>
</defs>
</svg>
